<svg data-v-423bf9ae="" xmlns="http://www.w3.org/2000/svg" viewBox="0 0 433.1460851443696 60" class="font"><!----><!----><defs data-v-423bf9ae=""><linearGradient data-v-423bf9ae="" gradientTransform="rotate(25)" id="c016d722-0b1c-417d-8a62-006619947201" x1="0%" y1="0%" x2="100%" y2="0%"><stop data-v-423bf9ae="" offset="0%" style="stop-color: rgb(0, 102, 120); stop-opacity: 1;"></stop><stop data-v-423bf9ae="" offset="100%" style="stop-color: rgb(79, 168, 255); stop-opacity: 1;"></stop></linearGradient></defs><g data-v-423bf9ae="" id="c8ac455f-699e-461e-a6bb-9e74fd753e66" fill="url(#c016d722-0b1c-417d-8a62-006619947201)" transform="matrix(5.617977869218204,0,0,5.617977869218204,-6.2921329163719975,-0.7865167709286744)"><path d="M6.43 2.23L6.43 2.23L3.46 2.23C3.19 2.23 2.98 2.42 2.98 2.69L2.98 4.56C2.98 4.82 3.19 5.03 3.46 5.03L5.56 5.03C5.82 5.03 6.03 4.82 6.03 4.56C6.03 4.30 5.82 4.09 5.56 4.09L3.92 4.09L3.92 3.15L6.43 3.15C6.69 3.15 6.90 2.94 6.90 2.69C6.90 2.42 6.69 2.23 6.43 2.23ZM5.56 5.96L5.56 5.96L3.46 5.96C3.19 5.96 2.98 6.17 2.98 6.43L2.98 8.30C2.98 8.55 3.19 8.76 3.46 8.76L6.43 8.76C6.69 8.76 6.90 8.55 6.90 8.30C6.90 8.04 6.69 7.83 6.43 7.83L3.92 7.83L3.92 6.90L5.56 6.90C5.82 6.90 6.03 6.69 6.03 6.43C6.03 6.17 5.82 5.96 5.56 5.96ZM6.43 9.70L6.43 9.70L2.06 9.70L2.06 1.29L6.43 1.29C6.69 1.29 6.90 1.08 6.90 0.81C6.90 0.56 6.69 0.35 6.43 0.35L1.58 0.35C1.33 0.35 1.12 0.56 1.12 0.81L1.12 10.18C1.12 10.43 1.33 10.64 1.58 10.64L6.43 10.64C6.69 10.64 6.90 10.43 6.90 10.18C6.90 9.91 6.69 9.70 6.43 9.70ZM10.29 0.88L10.29 0.88L11.76 3.42C11.93 3.71 12.38 3.71 12.54 3.42L14.01 0.88C14.32 0.35 13.52-0.11 13.23 0.42L12.17 2.27L11.09 0.42C10.78-0.11 10.00 0.35 10.29 0.88ZM14.38 10.08L14.38 10.08L12.54 6.94C12.38 6.64 11.93 6.64 11.76 6.94L9.93 10.08C9.63 10.61 10.42 11.07 10.74 10.54L12.17 8.09L13.58 10.54C13.89 11.07 14.67 10.61 14.38 10.08ZM8.62 10.49L8.62 10.49L11.58 5.38C11.68 5.22 11.66 5.05 11.56 4.91L8.97 0.41C8.67-0.11 7.88 0.35 8.18 0.87L10.65 5.14L7.83 10.02C7.52 10.54 8.30 11.02 8.62 10.49ZM15.33 0.41L15.33 0.41L12.74 4.91C12.64 5.07 12.64 5.24 12.74 5.39L15.69 10.49C16.00 11.02 16.79 10.54 16.49 10.02L13.65 5.14L16.13 0.87C16.44 0.35 15.64-0.11 15.33 0.41ZM23.95 2.23L23.95 2.23L21.60 2.23C21.35 2.23 21.14 2.44 21.14 2.70L21.14 10.16C21.14 10.43 21.35 10.64 21.60 10.64C21.87 10.64 22.08 10.43 22.08 10.16L22.08 3.15L23.95 3.15C24.21 3.15 24.40 2.95 24.40 2.70C24.40 2.44 24.21 2.23 23.95 2.23ZM17.42 1.29L17.42 1.29L23.95 1.29C24.21 1.29 24.40 1.08 24.40 0.83C24.40 0.56 24.21 0.36 23.95 0.36L17.42 0.36C17.15 0.36 16.94 0.56 16.94 0.83C16.94 1.08 17.15 1.29 17.42 1.29ZM17.42 3.15L17.42 3.15L19.26 3.15L19.26 10.16C19.26 10.43 19.49 10.64 19.74 10.64C20.01 10.64 20.22 10.43 20.22 10.16L20.22 2.70C20.22 2.44 20.01 2.23 19.74 2.23L17.42 2.23C17.15 2.23 16.94 2.44 16.94 2.70C16.94 2.95 17.15 3.15 17.42 3.15ZM31.22 2.23L31.22 2.23L28.25 2.23C27.99 2.23 27.78 2.42 27.78 2.69L27.78 4.56C27.78 4.82 27.99 5.03 28.25 5.03L30.35 5.03C30.62 5.03 30.83 4.82 30.83 4.56C30.83 4.30 30.62 4.09 30.35 4.09L28.71 4.09L28.71 3.15L31.22 3.15C31.49 3.15 31.70 2.94 31.70 2.69C31.70 2.42 31.49 2.23 31.22 2.23ZM30.35 5.96L30.35 5.96L28.25 5.96C27.99 5.96 27.78 6.17 27.78 6.43L27.78 8.30C27.78 8.55 27.99 8.76 28.25 8.76L31.22 8.76C31.49 8.76 31.70 8.55 31.70 8.30C31.70 8.04 31.49 7.83 31.22 7.83L28.71 7.83L28.71 6.90L30.35 6.90C30.62 6.90 30.83 6.69 30.83 6.43C30.83 6.17 30.62 5.96 30.35 5.96ZM31.22 9.70L31.22 9.70L26.85 9.70L26.85 1.29L31.22 1.29C31.49 1.29 31.70 1.08 31.70 0.81C31.70 0.56 31.49 0.35 31.22 0.35L26.38 0.35C26.12 0.35 25.91 0.56 25.91 0.81L25.91 10.18C25.91 10.43 26.12 10.64 26.38 10.64L31.22 10.64C31.49 10.64 31.70 10.43 31.70 10.18C31.70 9.91 31.49 9.70 31.22 9.70ZM34.50 10.18L34.50 10.18L34.50 0.81C34.50 0.56 34.30 0.36 34.03 0.36C33.78 0.36 33.57 0.56 33.57 0.81L33.57 10.18C33.57 10.43 33.78 10.65 34.03 10.65C34.30 10.65 34.50 10.43 34.50 10.18ZM42.14 10.18L42.14 10.18L42.14 0.81C42.14 0.56 41.93 0.36 41.66 0.36C41.41 0.36 41.20 0.56 41.20 0.81L41.20 10.18C41.20 10.43 41.41 10.65 41.66 10.65C41.93 10.65 42.14 10.43 42.14 10.18ZM40.36 9.91L40.36 9.91L36.29 4.09C36.15 3.86 35.84 3.81 35.64 3.98C35.50 4.06 35.45 4.20 35.45 4.35L35.45 10.18C35.45 10.43 35.64 10.64 35.90 10.64C36.16 10.64 36.37 10.43 36.37 10.18L36.37 5.84L39.59 10.44C39.75 10.65 40.03 10.71 40.25 10.57C40.45 10.40 40.50 10.12 40.36 9.91ZM35.35 1.09L35.35 1.09L39.41 6.92C39.56 7.13 39.84 7.18 40.05 7.03C40.19 6.94 40.26 6.79 40.26 6.64L40.26 0.81C40.26 0.56 40.05 0.36 39.80 0.36C39.55 0.36 39.33 0.56 39.33 0.81L39.33 5.17L36.11 0.56C35.97 0.35 35.67 0.28 35.46 0.45C35.25 0.59 35.20 0.87 35.35 1.09ZM50.57 2.23L50.57 2.23L48.22 2.23C47.96 2.23 47.75 2.44 47.75 2.70L47.75 10.16C47.75 10.43 47.96 10.64 48.22 10.64C48.48 10.64 48.69 10.43 48.69 10.16L48.69 3.15L50.57 3.15C50.82 3.15 51.02 2.95 51.02 2.70C51.02 2.44 50.82 2.23 50.57 2.23ZM44.03 1.29L44.03 1.29L50.57 1.29C50.82 1.29 51.02 1.08 51.02 0.83C51.02 0.56 50.82 0.36 50.57 0.36L44.03 0.36C43.76 0.36 43.55 0.56 43.55 0.83C43.55 1.08 43.76 1.29 44.03 1.29ZM44.03 3.15L44.03 3.15L45.88 3.15L45.88 10.16C45.88 10.43 46.10 10.64 46.35 10.64C46.62 10.64 46.83 10.43 46.83 10.16L46.83 2.70C46.83 2.44 46.62 2.23 46.35 2.23L44.03 2.23C43.76 2.23 43.55 2.44 43.55 2.70C43.55 2.95 43.76 3.15 44.03 3.15ZM55.34 10.18L55.34 10.18L55.34 0.81C55.34 0.56 55.13 0.35 54.88 0.35C54.61 0.35 54.40 0.56 54.40 0.81L54.40 10.18C54.40 10.43 54.61 10.64 54.88 10.64C55.13 10.64 55.34 10.43 55.34 10.18ZM53.47 10.18L53.47 10.18L53.47 0.81C53.47 0.56 53.26 0.35 53.00 0.35C52.74 0.35 52.53 0.56 52.53 0.81L52.53 10.18C52.53 10.43 52.74 10.64 53.00 10.64C53.26 10.64 53.47 10.43 53.47 10.18ZM67.75 3.88L67.75 3.88C67.40 2.77 66.70 1.83 65.79 1.16C64.88 0.52 63.78 0.14 62.58 0.14C55.48 0.14 55.48 10.82 62.58 10.82C63.78 10.82 64.88 10.43 65.79 9.79C66.70 9.13 67.40 8.18 67.75 7.08C67.82 6.83 67.69 6.55 67.44 6.48C67.19 6.41 66.91 6.54 66.84 6.79C66.54 7.70 65.98 8.47 65.21 9.02C64.48 9.55 63.57 9.86 62.58 9.86C56.74 9.86 56.74 1.09 62.58 1.09C63.57 1.09 64.48 1.41 65.21 1.93C65.98 2.49 66.54 3.26 66.84 4.16C66.91 4.41 67.19 4.55 67.44 4.47C67.69 4.40 67.82 4.13 67.75 3.88ZM59.70 7.17L59.70 7.17C59.99 7.69 60.41 8.12 60.91 8.43C61.42 8.71 61.99 8.88 62.58 8.88C63.52 8.88 64.36 8.50 64.97 7.87C65.56 7.25 65.94 6.41 65.94 5.47C65.94 4.54 65.56 3.70 64.97 3.08C64.36 2.46 63.52 2.09 62.58 2.09C61.99 2.09 61.42 2.24 60.91 2.53C60.41 2.83 59.99 3.26 59.70 3.78C59.56 4.02 59.64 4.31 59.86 4.44C60.10 4.56 60.38 4.48 60.51 4.24C60.73 3.88 61.04 3.57 61.40 3.36C61.75 3.15 62.15 3.04 62.58 3.04C63.25 3.04 63.85 3.32 64.27 3.75C64.72 4.19 64.99 4.80 64.99 5.47C64.99 6.16 64.72 6.78 64.27 7.21C63.85 7.66 63.25 7.92 62.58 7.92C62.15 7.92 61.74 7.80 61.40 7.59C61.04 7.39 60.73 7.07 60.51 6.71C60.38 6.47 60.10 6.40 59.86 6.52C59.64 6.66 59.56 6.93 59.70 7.17ZM70.57 10.18L70.57 10.18L70.57 0.81C70.57 0.56 70.38 0.36 70.11 0.36C69.86 0.36 69.65 0.56 69.65 0.81L69.65 10.18C69.65 10.43 69.86 10.65 70.11 10.65C70.38 10.65 70.57 10.43 70.57 10.18ZM78.22 10.18L78.22 10.18L78.22 0.81C78.22 0.56 78.01 0.36 77.74 0.36C77.49 0.36 77.28 0.56 77.28 0.81L77.28 10.18C77.28 10.43 77.49 10.65 77.74 10.65C78.01 10.65 78.22 10.43 78.22 10.18ZM76.44 9.91L76.44 9.91L72.37 4.09C72.23 3.86 71.92 3.81 71.72 3.98C71.58 4.06 71.53 4.20 71.53 4.35L71.53 10.18C71.53 10.43 71.72 10.64 71.97 10.64C72.24 10.64 72.45 10.43 72.45 10.18L72.45 5.84L75.67 10.44C75.82 10.65 76.10 10.71 76.33 10.57C76.52 10.40 76.58 10.12 76.44 9.91ZM71.43 1.09L71.43 1.09L75.49 6.92C75.64 7.13 75.92 7.18 76.13 7.03C76.27 6.94 76.34 6.79 76.34 6.64L76.34 0.81C76.34 0.56 76.13 0.36 75.88 0.36C75.63 0.36 75.40 0.56 75.40 0.81L75.40 5.17L72.18 0.56C72.04 0.35 71.75 0.28 71.54 0.45C71.33 0.59 71.27 0.87 71.43 1.09Z"></path></g><!----><!----></svg>